<?xml version="1.0" encoding="UTF-8"?>
<svg id="Layer_1" data-name="Layer 1" xmlns="http://www.w3.org/2000/svg" viewBox="0 0 523.55 353.55">
  <defs>
    <style>
      .cls-1 {
        font-family: Inconsolata-Bold, Inconsolata;
        font-size: 162.19px;
        font-weight: 700;
      }

      .cls-1, .cls-2, .cls-3 {
        fill: #dd1f26;
      }

      .cls-1, .cls-3 {
        stroke: #dd1f26;
        stroke-miterlimit: 10;
        stroke-width: 5px;
      }

      .cls-4 {
        fill: #191a1b;
      }
    </style>
  </defs>
  <path class="cls-2" d="M36.21,16.95c-5.05,9.12-13.31,26.95-14.28,50.83-.79,19.66,3.69,35.31,7.14,44.55.97-3.48,5.1-16.65,18.56-25.7,13.78-9.27,27.9-7.87,31.41-7.42-6.73-4.1-17.1-11.58-26.27-23.99-11.15-15.09-15.04-30.03-16.56-38.26Z"/>
  <path class="cls-2" d="M355.78,16.95c5.05,9.12,13.31,26.95,14.28,50.83.79,19.66-3.69,35.31-7.14,44.55-.97-3.48-5.1-16.65-18.56-25.7-13.78-9.27-27.9-7.87-31.41-7.42,6.73-4.1,17.1-11.58,26.27-23.99,11.15-15.09,15.04-30.03,16.56-38.26Z"/>
  <g>
    <path class="cls-2" d="M431.73,38.32c-5.25,11.8-10.5,23.61-15.75,35.41-1.7,3.1-6.46,12.74-4,24.56,2.75,13.22,13.45,23.95,27.58,27.98,1.82,1.07,16.32,9.28,32.96,2.86,14.47-5.59,20.13-18.21,21.13-20.56,3.81-10.1,7.61-20.21,11.42-30.31v-20.51c-5.14,4.95-10.28,9.9-15.42,14.85-3.62,10.09-7.23,20.18-10.85,30.27-.53,1.31-2.93,6.8-9.14,9.71-7.45,3.5-14.41.46-15.42,0,6.47-15.9,12.94-31.79,19.42-47.69.76-8.09,1.52-16.18,2.28-24.27-5.92,5.9-11.84,11.8-17.76,17.7-6.21,15.61-12.41,31.22-18.62,46.83-1.22-.56-7.1-3.41-9.68-10.28-3.18-8.45,1.32-15.78,1.85-16.61,5.22-11.22,10.44-22.43,15.66-33.65v-18.85l-15.66,12.56Z"/>
    <path class="cls-2" d="M435,116.62c-20.83,50.14-41.65,100.28-62.48,150.41-.38,4.38,2.23,8.31,5.86,9.41,4.4,1.33,9.67-1.69,10.84-7.03,20.29-49.31,40.58-98.63,60.87-147.94-5.03-1.62-10.06-3.23-15.09-4.85Z"/>
  </g>
  <path class="cls-4" d="M364.31,235v51.91c0,21.33-17.29,38.63-38.63,38.63H66.56c-21.33,0-38.63-17.29-38.63-38.63V116.88c0-21.33,17.29-38.63,38.63-38.63h259.12c21.33,0,38.63,17.29,38.63,38.63v76.45l4.19-.32c19.04-1.41,26.08-2.5,45.12-3.92,5.78.91,10.76,4.31,12.56,9.14,2.67,7.13-1.76,16.88-11.42,20.56-19.42,6.47-22.86,7.67-42.28,14.14l-8.17,2.07Z"/>
  <g>
    <text class="cls-1" transform="translate(65.31 206.79)"><tspan x="0" y="0">&gt;</tspan></text>
    <rect class="cls-3" x="161.73" y="185.77" width="71.75" height="15.13"/>
  </g>
</svg>